<svg width="80" height="160" viewBox="0 0 80 160" fill="none" xmlns="http://www.w3.org/2000/svg">
<path d="M0 25C0 11.1929 11.1929 0 25 0H80V135C80 148.807 68.8071 160 55 160H0V25Z" fill="white"/>
<path d="M31.9846 64.1023C30.3245 64.0175 30.3557 61.6824 31.9846 61.6013C36.5986 61.6173 48.7685 61.6056 53.5292 61.6089C54.8314 61.6089 55.9454 60.7228 56.2383 59.4542L58.9416 47.748C59.0964 47.0778 58.9401 46.384 58.513 45.8449C58.0859 45.3057 57.4464 44.9921 56.7586 44.9921C54.8434 44.9921 38.5864 44.9185 30.2596 44.8853L28.9397 39.9877C28.6228 38.8174 27.5548 38 26.3423 38H22.1139C21.4987 38 21 38.4987 21 39.1139C21 39.729 21.4987 40.2277 22.1139 40.2277H26.3423C26.551 40.2277 26.7348 40.3685 26.7891 40.5687L31.8583 59.3766C30.967 59.4089 30.1368 59.7715 29.5072 60.4102C28.8457 61.0815 28.4905 61.9701 28.5069 62.9124C28.5397 64.7968 30.0998 66.3299 31.9846 66.3299H33.6088C33.3674 66.8367 33.2319 67.4032 33.2319 68.0008C33.2319 70.1506 34.9808 71.8995 37.1306 71.8995C39.2804 71.8995 41.0293 70.1506 41.0293 68.0008C41.0293 67.4031 40.8937 66.8367 40.6523 66.3299H47.6857C47.4445 66.8365 47.309 67.4028 47.309 68.0002C47.309 70.15 49.058 71.8989 51.2077 71.8989C53.3575 71.8989 55.1065 70.1499 55.1065 68.0002C55.1065 67.3795 54.9599 66.7926 54.7007 66.2711C55.1415 66.1227 55.4594 65.7069 55.4594 65.2162C55.4594 64.601 54.9606 64.1023 54.3455 64.1023H31.9846ZM38.8015 68.0009C38.8015 68.9223 38.0519 69.6719 37.1305 69.6719C36.2091 69.6719 35.4596 68.9223 35.4596 68.0009C35.4596 67.08 36.2084 66.3308 37.1291 66.33H37.1319C38.0527 66.3308 38.8015 67.08 38.8015 68.0009ZM51.2078 69.6713C50.2865 69.6713 49.5368 68.9216 49.5368 68.0003C49.5368 67.0881 50.2718 66.3447 51.1807 66.33H51.235C52.1439 66.3447 52.8789 67.0881 52.8789 68.0003C52.8788 68.9216 52.1292 69.6713 51.2078 69.6713ZM56.7668 47.228C56.7734 47.2363 56.7724 47.2402 56.771 47.2466L55.6319 52.1792H51.7748L52.4316 47.2022L56.7497 47.2196C56.7563 47.2197 56.7602 47.2198 56.7668 47.228ZM45.2831 59.3811V54.407H49.2338L48.5773 59.3811H45.2831ZM39.7596 59.3811L39.0978 54.407H43.0554V59.3811H39.7596ZM34.6319 59.3811H34.6284C34.3569 59.381 34.1177 59.1979 34.0471 58.937L32.8261 54.407H36.8504L37.5122 59.3811H34.6319ZM38.8014 52.1793L38.1315 47.1447L43.0553 47.1645V52.1793H38.8014ZM45.2831 52.1793V47.1735L50.1858 47.1932L49.5278 52.1793H45.2831ZM35.8829 47.1355L36.554 52.1792H32.2257L30.8608 47.1153L35.8829 47.1355ZM53.5292 59.3811H50.8243L51.4808 54.407H55.1174L54.0676 58.9528C54.0094 59.205 53.788 59.3811 53.5292 59.3811Z" fill="black"/>
<g filter="url(#filter0_b)">
<path d="M0 125C0 111.193 11.1929 100 25 100H80V135C80 148.807 68.8071 160 55 160H0V125Z" fill="#FF0008"/>
</g>
<path d="M24.1562 123.016C24.1562 122.552 24.0365 122.203 23.7969 121.969C23.5625 121.729 23.1328 121.482 22.5078 121.227C21.3672 120.794 20.5469 120.289 20.0469 119.711C19.5469 119.128 19.2969 118.44 19.2969 117.648C19.2969 116.69 19.6354 115.922 20.3125 115.344C20.9948 114.76 21.8594 114.469 22.9062 114.469C23.6042 114.469 24.2266 114.617 24.7734 114.914C25.3203 115.206 25.7396 115.62 26.0312 116.156C26.3281 116.693 26.4766 117.302 26.4766 117.984H24.1875C24.1875 117.453 24.0729 117.049 23.8438 116.773C23.6198 116.492 23.2943 116.352 22.8672 116.352C22.4661 116.352 22.1536 116.471 21.9297 116.711C21.7057 116.945 21.5938 117.263 21.5938 117.664C21.5938 117.977 21.7188 118.26 21.9688 118.516C22.2188 118.766 22.6615 119.026 23.2969 119.297C24.4062 119.698 25.2109 120.19 25.7109 120.773C26.2161 121.357 26.4688 122.099 26.4688 123C26.4688 123.99 26.1536 124.763 25.5234 125.32C24.8932 125.878 24.0365 126.156 22.9531 126.156C22.2188 126.156 21.5495 126.005 20.9453 125.703C20.3411 125.401 19.8672 124.969 19.5234 124.406C19.1849 123.844 19.0156 123.18 19.0156 122.414H21.3203C21.3203 123.07 21.4479 123.547 21.7031 123.844C21.9583 124.141 22.375 124.289 22.9531 124.289C23.7552 124.289 24.1562 123.865 24.1562 123.016ZM31.1953 121.609L30.2891 122.75V126H27.9922V114.625H30.2891V119.586L31.0156 118.359L33.1328 114.625H35.9453L32.6875 119.625L36 126H33.2734L31.1953 121.609ZM39.1484 124.094H43.1797V126H36.8516V114.625H39.1484V124.094ZM50.3828 121.078H46.8047V124.094H51.0391V126H44.5078V114.625H51.0234V116.539H46.8047V119.227H50.3828V121.078ZM54.6641 122V126H52.3672V114.625H56.2422C57.3672 114.625 58.263 114.974 58.9297 115.672C59.6016 116.37 59.9375 117.276 59.9375 118.391C59.9375 119.505 59.6068 120.385 58.9453 121.031C58.2839 121.677 57.3672 122 56.1953 122H54.6641ZM54.6641 120.086H56.2422C56.6797 120.086 57.0182 119.943 57.2578 119.656C57.4974 119.37 57.6172 118.953 57.6172 118.406C57.6172 117.839 57.4948 117.388 57.25 117.055C57.0052 116.716 56.6771 116.544 56.2656 116.539H54.6641V120.086ZM20.9687 140.336C20.9687 141.862 20.6068 143.047 19.8828 143.891C19.1641 144.734 18.1641 145.156 16.8828 145.156C15.6068 145.156 14.6042 144.74 13.875 143.906C13.1458 143.068 12.776 141.896 12.7656 140.391L12.7656 138.445C12.7656 136.883 13.1276 135.664 13.8516 134.789C14.5755 133.909 15.5807 133.469 16.8672 133.469C18.1328 133.469 19.1302 133.901 19.8594 134.766C20.5885 135.625 20.9583 136.833 20.9687 138.391L20.9687 140.336ZM18.6641 138.43C18.6641 137.404 18.5182 136.641 18.2266 136.141C17.9349 135.641 17.4818 135.391 16.8672 135.391C16.2578 135.391 15.8073 135.633 15.5156 136.117C15.224 136.596 15.0729 137.328 15.0625 138.312L15.0625 140.336C15.0625 141.331 15.2109 142.065 15.5078 142.539C15.8047 143.008 16.263 143.242 16.8828 143.242C17.4818 143.242 17.9271 143.013 18.2187 142.555C18.5104 142.091 18.6589 141.375 18.6641 140.406V138.43ZM30.5703 145H28.2734L24.9141 137.539L24.9141 145H22.6172L22.6172 133.625H24.9141L28.2812 141.094V133.625H30.5703L30.5703 145ZM36.2812 141.047H32.4609V139.203H36.2812V141.047ZM40.5234 143.094H44.5547V145H38.2266L38.2266 133.625H40.5234V143.094ZM48.2812 145H45.9844V133.625H48.2812V145ZM58.1641 145H55.8672L52.5078 137.539V145H50.2109V133.625H52.5078L55.875 141.094V133.625H58.1641V145ZM65.8828 140.078H62.3047V143.094H66.5391V145H60.0078V133.625H66.5234V135.539H62.3047V138.227H65.8828V140.078Z" fill="white"/>
<defs>
<filter id="filter0_b" x="-20" y="80" width="120" height="100" filterUnits="userSpaceOnUse" color-interpolation-filters="sRGB">
<feFlood flood-opacity="0" result="BackgroundImageFix"/>
<feGaussianBlur in="BackgroundImage" stdDeviation="10"/>
<feComposite in2="SourceAlpha" operator="in" result="effect1_backgroundBlur"/>
<feBlend mode="normal" in="SourceGraphic" in2="effect1_backgroundBlur" result="shape"/>
</filter>
</defs>
</svg>
