<svg width="84" height="78" viewBox="0 0 84 78" fill="none" xmlns="http://www.w3.org/2000/svg">
<path d="M32.0599 19.8684C30.2036 18.1933 27.5092 17.4464 25.294 19.1536C19.0153 24.5217 20.0795 38.4534 20.0952 45.7114C20.111 52.9693 23.0844 73.088 23.1294 73.9709C23.1969 75.2953 24.7162 75.5713 25.3822 74.7404C25.6517 74.8151 25.9959 74.6204 25.9734 74.179C25.8761 74.0069 35.5429 46.5115 36.9334 32.0997C37.3969 27.2957 35.7724 23.2186 32.0599 19.8684Z" fill="white"/>
<path d="M75.8889 30.2762C65.4173 19.3946 45.0111 51.602 39.7662 66.8314C39.6166 67.3702 40.4249 67.5943 40.6719 67.2275C40.6719 67.2275 40.844 67.1302 40.7467 66.9581C41.0386 67.4743 41.5775 67.6236 42.266 67.2342C55.4299 57.9717 86.1884 41.2551 75.8889 30.2762Z" fill="white"/>
</svg>
