<svg width="65" height="78" viewBox="0 0 65 78" fill="none" xmlns="http://www.w3.org/2000/svg">
<path d="M53.1006 34.5375C55.2191 33.2093 56.6735 30.8214 55.6364 28.2242C52.1874 20.7179 38.4947 17.9363 31.5085 15.9689C24.5223 14.0016 4.35644 11.3665 3.49482 11.1686C2.20239 10.8718 1.52182 12.258 2.1392 13.1256C1.99376 13.3644 2.08704 13.7488 2.51784 13.8477C2.70993 13.8011 26.5193 30.6105 40.0033 35.8847C44.498 37.6428 48.8637 37.1937 53.1006 34.5375Z" fill="white"/>
<path d="M31.1168 73.8568C44.4449 66.7557 19.0362 38.3282 5.81847 29.1229C5.34102 28.8318 4.9047 29.5482 5.19006 29.8859C5.19006 29.8859 5.2367 30.078 5.42878 30.0314C4.85253 30.1713 4.56165 30.6489 4.74821 31.4176C10.0628 46.6109 17.7421 80.7658 31.1168 73.8568Z" fill="white"/>
</svg>
